<svg width="55" height="52" viewBox="0 0 55 52" fill="none" xmlns="http://www.w3.org/2000/svg">
<path d="M39.5084 34.3325C37.74 34.3325 36.3008 35.7984 36.3008 37.6002C36.3008 39.4027 37.74 40.8686 39.5084 40.8686C41.2768 40.8686 42.716 39.4027 42.716 37.6002C42.716 35.7984 41.2768 34.3325 39.5084 34.3325ZM39.5084 39.7422C38.3595 39.7422 37.4241 38.7816 37.4241 37.6002C37.4241 36.4196 38.3595 35.4589 39.5084 35.4589C40.6573 35.4589 41.5927 36.4196 41.5927 37.6002C41.5927 38.7816 40.6573 39.7422 39.5084 39.7422Z" fill="#E12D2F" stroke="#E12D2F" stroke-width="0.4"/>
<path d="M9.23301 34.3325C7.46465 34.3325 6.02539 35.7984 6.02539 37.6002C6.02539 39.4027 7.46465 40.8686 9.23301 40.8686C11.0014 40.8686 12.4406 39.4027 12.4406 37.6002C12.4406 35.7984 11.0014 34.3325 9.23301 34.3325ZM9.23301 39.7422C8.08409 39.7422 7.14872 38.7816 7.14872 37.6002C7.14872 36.4196 8.08409 35.4589 9.23301 35.4589C10.3819 35.4589 11.3173 36.4196 11.3173 37.6002C11.3173 38.7816 10.3819 39.7422 9.23301 39.7422Z" fill="#E12D2F" stroke="#E12D2F" stroke-width="0.4"/>
<path d="M32.5276 41.0161H16.2101C15.9 41.0161 15.6484 41.2684 15.6484 41.5793C15.6484 41.8902 15.9 42.1425 16.2101 42.1425H32.5276C32.8377 42.1425 33.0892 41.8902 33.0892 41.5793C33.0892 41.2684 32.8377 41.0161 32.5276 41.0161Z" fill="#E12D2F" stroke="#E12D2F" stroke-width="0.4"/>
<path d="M32.5276 35.0085H16.2101C15.9 35.0085 15.6484 35.2608 15.6484 35.5717V38.3877C15.6484 38.6986 15.9 38.9509 16.2101 38.9509H32.5276C32.8377 38.9509 33.0892 38.6986 33.0892 38.3877V35.5717C33.0892 35.2608 32.8377 35.0085 32.5276 35.0085ZM31.9659 37.8245H16.7718V36.1349H31.9659V37.8245Z" fill="#E12D2F" stroke="#E12D2F" stroke-width="0.4"/>
<path d="M45.6268 27.1728L41.5022 26.7934L41.143 24.3121L40.476 20.0838C40.1981 18.3421 38.7179 17.0786 36.9561 17.0786H11.7785C10.0211 17.0786 8.54386 18.3421 8.26595 20.0838C8.25403 20.1612 7.16315 27.2445 7.23157 26.8002L3.11664 27.1728C1.81066 27.2888 0.785156 28.3941 0.785156 29.7314C0.785156 31.047 1.80975 32.1675 3.11518 32.2826L3.92659 32.3569C2.82306 33.3025 2.14031 34.6955 2.14031 36.2118V43.2935C2.14031 44.7836 3.34994 45.9965 4.836 45.9965H6.26576V47.8811C6.26576 49.6573 7.70721 51.1026 9.4785 51.1026H13.7992C15.5705 51.1026 17.012 49.6573 17.012 47.8811V45.9965H31.7278V47.8811C31.7278 49.6573 33.1693 51.1026 34.9406 51.1026H39.2613C41.0326 51.1026 42.474 49.6573 42.474 47.8811V45.9965H43.906C45.3884 45.9965 46.5943 44.7836 46.5943 43.2935V36.2118C46.5943 34.6947 45.9114 33.3017 44.8096 32.3571L45.6246 32.2826C46.9373 32.1675 47.9495 31.0603 47.9495 29.7314C47.9495 28.4114 46.9285 27.2872 45.6268 27.1728ZM9.37465 20.2612C9.5648 19.0696 10.5762 18.205 11.7785 18.205H36.9561C38.1628 18.205 39.1772 19.0696 39.3666 20.2605L40.0321 24.4808L40.4526 27.3858C40.4531 27.3891 40.4514 27.3924 40.4519 27.3957L40.9311 30.6901L40.9945 31.1284H38.8134C38.6434 29.6333 38.1192 25.0497 37.7547 22.1312C37.6267 21.1016 36.7477 20.325 35.7114 20.325H13.0277C11.9914 20.325 11.1123 21.1016 10.9843 22.1312C10.6204 25.0497 10.0963 29.6333 9.92635 31.1284H7.74012C10.2045 14.1015 6.97819 36.1862 9.37465 20.2612ZM11.0567 31.1276C11.2417 29.5048 11.7464 25.0982 12.0989 22.2705C12.1574 21.8034 12.5567 21.4514 13.0277 21.4514H35.7114C36.1824 21.4514 36.5817 21.8034 36.6402 22.2705C36.9927 25.0982 37.498 29.5048 37.683 31.1276H11.0567ZM1.90848 29.7314C1.90848 28.9849 2.48417 28.3597 3.21684 28.2948L7.06556 27.9466C7.05461 28.0221 6.5683 31.3786 6.59925 31.165C6.44814 31.1832 5.95733 31.2737 5.63462 31.3821L3.21537 31.1606C2.48258 31.0961 1.90848 30.4684 1.90848 29.7314ZM15.8886 47.8811C15.8886 49.0361 14.9511 49.9762 13.7992 49.9762H9.4785C8.32665 49.9762 7.38908 49.0361 7.38908 47.8811V45.9965H15.8886V47.8811ZM41.3507 47.8811C41.3507 49.0361 40.4131 49.9762 39.2613 49.9762H34.9406C33.7887 49.9762 32.8511 49.0361 32.8511 47.8811V45.9965H41.3507V47.8811ZM45.471 36.2118V43.2935C45.471 44.1632 44.7689 44.8701 43.906 44.8701C34.9114 44.8701 12.6631 44.8701 4.836 44.8701C3.96864 44.8701 3.26364 44.1632 3.26364 43.2935V36.2118C3.26364 34.5354 4.31968 33.0379 5.89717 32.4835C7.02948 32.069 5.44359 32.3336 41.524 32.2547C43.6854 32.2547 45.471 34.0122 45.471 36.2118ZM45.5244 31.1606L43.0993 31.3821C42.7705 31.2717 42.2681 31.181 42.1354 31.165L42.0424 30.5241L41.6683 27.94L45.5266 28.2948C46.255 28.3586 46.8262 28.99 46.8262 29.7314C46.8262 30.4686 46.2672 31.095 45.5244 31.1606Z" fill="#E12D2F" stroke="#E12D2F" stroke-width="0.4"/>
<path d="M44.6171 16.3372C44.5796 16.5094 44.6887 16.6798 44.8606 16.7172C45.4315 16.8423 46.0057 16.9035 46.5749 16.9032C48.6625 16.9032 50.6798 16.0807 52.1938 14.5624C55.3001 11.4476 55.2999 6.37946 52.1937 3.26491C50.6896 1.75662 48.6902 0.926025 46.5637 0.926025C46.5633 0.926025 46.5627 0.926025 46.5624 0.926025C44.4351 0.926337 42.4346 1.75786 40.9293 3.2674C38.0519 6.15247 37.843 10.7132 40.2985 13.8442L38.9825 13.5811C38.8105 13.5446 38.6422 13.6588 38.6078 13.832C38.5733 14.0049 38.6853 14.1733 38.858 14.2077L41.0888 14.6535C41.1093 14.6576 41.1303 14.6598 41.151 14.6598C41.2136 14.6598 41.2752 14.6414 41.3279 14.6061C41.3416 14.5969 41.3502 14.5828 41.3622 14.5717C41.3677 14.5669 41.3747 14.5652 41.3799 14.5599C41.3851 14.5547 41.3869 14.5477 41.3917 14.5421C41.4066 14.5243 41.4187 14.5058 41.4294 14.4851C41.4411 14.4637 41.4502 14.4425 41.4567 14.4194C41.4582 14.4134 41.4624 14.4087 41.4636 14.4027L41.9073 12.1696C41.9417 11.9964 41.8295 11.8282 41.657 11.7939C41.4844 11.7586 41.3167 11.8716 41.2822 12.0448L40.964 13.6466C38.5359 10.7633 38.6714 6.43524 41.3799 3.7192C42.7649 2.33041 44.6055 1.56535 46.5624 1.56504C46.5629 1.56504 46.5632 1.56504 46.5637 1.56504C48.5198 1.56504 50.3593 2.32917 51.7431 3.71671C54.6009 6.58227 54.6009 11.2451 51.7432 14.1106C49.9703 15.8882 47.4483 16.6289 44.9963 16.0932C44.8255 16.0532 44.6546 16.1646 44.6171 16.3372Z" fill="#E12D2F" stroke="#E12D2F" stroke-width="0.6"/>
<path d="M45.885 3.91821C45.7091 3.91821 45.5664 4.06112 45.5664 4.23772V9.31174C45.5664 9.44778 45.6521 9.56884 45.7802 9.61346L49.0663 10.7623C49.101 10.7745 49.1363 10.7801 49.1712 10.7801C49.3029 10.7801 49.4262 10.6977 49.4721 10.5657C49.5299 10.3991 49.4422 10.2169 49.276 10.1589L46.2037 9.08491V4.23772C46.2037 4.06112 46.061 3.91821 45.885 3.91821Z" fill="#E12D2F" stroke="#E12D2F" stroke-width="0.6"/>
</svg>
