<svg width="51" height="41" viewBox="0 0 51 41" fill="none" xmlns="http://www.w3.org/2000/svg">
<path d="M28.9218 4.55682H5.23614C4.99973 4.55682 4.77301 4.6505 4.60584 4.81726C4.43868 4.98402 4.34477 5.21019 4.34477 5.44602V17.8949C4.34477 18.1307 4.43868 18.3569 4.60584 18.5236C4.77301 18.6904 4.99973 18.7841 5.23614 18.7841H44.1743C44.3582 18.7841 44.5377 18.7274 44.688 18.6216C44.8383 18.5159 44.9522 18.3664 45.014 18.1936C45.0757 18.0208 45.0824 17.8331 45.0331 17.6563C44.9837 17.4796 44.8808 17.3224 44.7383 17.2063L29.4859 4.75742C29.3266 4.62788 29.1274 4.55704 28.9218 4.55682ZM6.1275 17.0057V6.33523H28.6032L41.6769 17.0057H6.1275ZM41.7822 23.2301C41.7822 23.4659 41.6883 23.6921 41.5211 23.8589C41.354 24.0256 41.1273 24.1193 40.8908 24.1193H35.5426C35.3062 24.1193 35.0795 24.0256 34.9123 23.8589C34.7452 23.6921 34.6513 23.4659 34.6513 23.2301C34.6513 22.9943 34.7452 22.7681 34.9123 22.6014C35.0795 22.4346 35.3062 22.3409 35.5426 22.3409H40.8908C41.1273 22.3409 41.354 22.4346 41.5211 22.6014C41.6883 22.7681 41.7822 22.9943 41.7822 23.2301ZM50.3686 17.2063L30.7585 1.2006C30.5992 1.07104 30.4 1.0002 30.1944 1H1.67066C1.43426 1 1.20754 1.09368 1.04037 1.26044C0.873209 1.4272 0.779297 1.65337 0.779297 1.8892V39.2358C0.779297 39.4716 0.873209 39.6978 1.04037 39.8646C1.20754 40.0313 1.43426 40.125 1.67066 40.125H37.3254C37.5618 40.125 37.7885 40.0313 37.9557 39.8646C38.1228 39.6978 38.2167 39.4716 38.2167 39.2358C38.2203 36.1711 39.4423 33.2329 41.6146 31.0658C43.787 28.8987 46.7323 27.6797 49.8045 27.6761C50.0409 27.6761 50.2677 27.5825 50.4348 27.4157C50.602 27.2489 50.6959 27.0228 50.6959 26.7869V17.8949C50.6958 17.7631 50.6664 17.633 50.6098 17.5139C50.5532 17.3948 50.4708 17.2897 50.3686 17.2063ZM2.56203 38.3466V36.5682H36.7171C36.5923 37.1546 36.5076 37.7487 36.4636 38.3466H2.56203ZM48.9132 25.9272C46.3072 26.1048 43.8101 27.0383 41.7289 28.6128C39.6477 30.1874 38.0731 32.3344 37.1989 34.7898H2.56203V2.77841H29.8759L48.9132 18.316V25.9272Z" fill="#E12D2F" stroke="white" stroke-width="0.3"/>
</svg>
