<svg width="46" height="45" viewBox="0 0 46 45" fill="none" xmlns="http://www.w3.org/2000/svg">
<path d="M24.8273 15.1149H4.625V5.03833H24.8273V15.1149ZM6.06802 13.6754H23.3843V6.47784H6.06802V13.6754Z" fill="#E12D2F"/>
<path d="M15.4489 17.9922H14.0059V19.4317H15.4489V17.9922Z" fill="#E12D2F"/>
<path d="M15.4489 36.7075H14.0059V38.147H15.4489V36.7075Z" fill="#E12D2F"/>
<path d="M6.06802 27.3508H4.625V28.7903H6.06802V27.3508Z" fill="#E12D2F"/>
<path d="M8.02107 33.3207L7.00195 34.3398L8.44298 35.7809L9.4621 34.7618L8.02107 33.3207Z" fill="#E12D2F"/>
<path d="M8.44298 20.3598L7.00195 21.8008L8.02107 22.8199L9.4621 21.3789L8.44298 20.3598Z" fill="#E12D2F"/>
<path d="M34.9301 19.4335C33.7368 19.4335 32.7656 18.4647 32.7656 17.2742V10.7964H34.2086V17.2742C34.2086 17.6715 34.5319 17.994 34.9301 17.994C35.3284 17.994 35.6517 17.6715 35.6517 17.2742V10.7964H37.0947V17.2742C37.0947 18.4647 36.1235 19.4335 34.9301 19.4335Z" fill="#E12D2F"/>
<path d="M37.815 10.0781H32.043V11.5176H37.815V10.0781Z" fill="#E12D2F"/>
<path d="M35.6501 0H34.207V5.75806H35.6501V0Z" fill="#E12D2F"/>
<path d="M37.0947 10.7964H35.6517V6.47784H34.2086V10.7964H32.7656V5.03833H37.0947V10.7964Z" fill="#E12D2F"/>
<path d="M42.145 19.4335C40.9516 19.4335 39.9805 18.4647 39.9805 17.2742V10.7964H41.4235V17.2742C41.4235 17.6715 41.7467 17.994 42.145 17.994C42.5433 17.994 42.8665 17.6715 42.8665 17.2742V10.7964H44.3095V17.2742C44.3095 18.4647 43.3384 19.4335 42.145 19.4335Z" fill="#E12D2F"/>
<path d="M45.0299 10.0781H39.2578V11.5176H45.0299V10.0781Z" fill="#E12D2F"/>
<path d="M42.8669 0H41.4238V5.75806H42.8669V0Z" fill="#E12D2F"/>
<path d="M44.3095 10.7964H42.8665V6.47784H41.4235V10.7964H39.9805V5.03833H44.3095V10.7964Z" fill="#E12D2F"/>
<path d="M6.06961 39.5867H3.18359V41.0262H6.06961V39.5867Z" fill="#E12D2F"/>
<path d="M14.7276 20.1533C10.3517 20.1533 6.79102 23.7053 6.79102 28.0706C6.79102 32.436 10.3517 35.988 14.7276 35.988C19.1036 35.988 22.6642 32.436 22.6642 28.0706C22.6642 23.7053 19.1036 20.1533 14.7276 20.1533ZM14.7276 21.5928C15.6952 21.5928 16.6108 21.8109 17.4369 22.191L8.83361 30.7733C8.45265 29.9492 8.23404 29.0358 8.23404 28.0706C8.23404 24.4985 11.1468 21.5928 14.7276 21.5928ZM9.60563 32.0387L18.7046 22.9618C19.1325 23.2936 19.5163 23.6765 19.8489 24.1033L10.7499 33.1802C10.3228 32.8484 9.93824 32.4648 9.60563 32.0387ZM14.7276 34.5485C13.7601 34.5485 12.8445 34.3304 12.0184 33.9503L20.6217 25.368C21.0026 26.1921 21.2212 27.1055 21.2212 28.0706C21.2212 31.6428 18.3085 34.5485 14.7276 34.5485Z" fill="#E12D2F"/>
<path d="M24.8278 27.3508H23.3848V28.7903H24.8278V27.3508Z" fill="#E12D2F"/>
<path d="M21.0086 20.3642L19.9883 21.3821L21.4311 22.8214L22.4514 21.8035L21.0086 20.3642Z" fill="#E12D2F"/>
<path d="M21.4311 33.3185L19.9883 34.7578L21.0086 35.7757L22.4514 34.3364L21.4311 33.3185Z" fill="#E12D2F"/>
<path d="M41.4229 18.7137V33.1089C41.4229 37.8715 37.539 41.746 32.7648 41.746H29.1572V37.4274H30.6003C33.3846 37.4274 35.6508 35.1667 35.6508 32.3891V18.7137H34.2078V32.3891C34.2078 34.3735 32.5895 35.9879 30.6003 35.9879H29.1572V2.15927C29.1572 0.968794 28.1861 0 26.9927 0H2.4614C1.26803 0 0.296875 0.968794 0.296875 2.15927V42.4657C0.296875 43.6562 1.26803 44.625 2.4614 44.625H26.9927C27.9321 44.625 28.7258 44.0211 29.0245 43.1855H32.7648C38.3348 43.1855 42.8659 38.6654 42.8659 33.1089V18.7137H41.4229ZM27.7142 42.4657C27.7142 42.863 27.391 43.1855 26.9927 43.1855H2.4614C2.06313 43.1855 1.73989 42.863 1.73989 42.4657V2.15927C1.73989 1.76197 2.06313 1.43952 2.4614 1.43952H26.9927C27.391 1.43952 27.7142 1.76197 27.7142 2.15927V42.4657Z" fill="#E12D2F"/>
<path d="M26.2708 39.5867H23.3848V41.0262H26.2708V39.5867Z" fill="#E12D2F"/>
</svg>
