<svg width="47" height="36" viewBox="0 0 47 36" fill="none" xmlns="http://www.w3.org/2000/svg">
<g clip-path="url(#clip0_1649:1149)">
<path d="M42.9474 36H4.05264C2.97935 36 1.94989 35.5701 1.19012 34.8045C0.430359 34.0389 0.00234856 33.0003 0 31.9164L0 4.09254C0.00234266 3.00786 0.430068 1.96828 1.18958 1.20129C1.94909 0.434302 2.97853 0.00236573 4.05264 0L42.9474 0C44.0215 0.00236573 45.0509 0.434302 45.8104 1.20129C46.5699 1.96828 46.9977 3.00786 47 4.09254V31.9164C46.9977 33.0003 46.5696 34.0389 45.8099 34.8045C45.0501 35.5701 44.0207 36 42.9474 36ZM4.05264 1.63881C3.73323 1.63762 3.41674 1.70028 3.12141 1.82317C2.82608 1.94607 2.55775 2.12676 2.33189 2.35485C2.10603 2.58293 1.9271 2.8539 1.8054 3.15214C1.68371 3.45037 1.62166 3.76998 1.62283 4.09254V31.9164C1.62283 32.5672 1.87883 33.1913 2.33451 33.6515C2.79018 34.1116 3.40822 34.3701 4.05264 34.3701H42.9474C43.5918 34.3701 44.2098 34.1116 44.6655 33.6515C45.1212 33.1913 45.3772 32.5672 45.3772 31.9164V4.09254C45.3772 3.44177 45.1212 2.81765 44.6655 2.35749C44.2098 1.89732 43.5918 1.63881 42.9474 1.63881H4.05264Z" fill="#E12D2F"/>
<path d="M28.3772 36H18.6225C18.4076 36 18.2015 35.9144 18.0487 35.7619C17.896 35.6093 17.809 35.402 17.8066 35.1851V0.814925C17.809 0.597974 17.896 0.39071 18.0487 0.238134C18.2015 0.0855583 18.4076 -1.28158e-05 18.6225 1.43966e-09L28.3772 1.43966e-09C28.5912 1.43966e-09 28.7965 0.085858 28.9478 0.238686C29.0992 0.391514 29.1842 0.598794 29.1842 0.814925V35.1851C29.1842 35.4012 29.0992 35.6085 28.9478 35.7613C28.7965 35.9141 28.5912 36 28.3772 36ZM19.5093 34.3701H27.6146V1.63881H19.4472L19.5093 34.3701Z" fill="#E12D2F"/>
<path d="M18.6226 7.3613H0.806981C0.592956 7.3613 0.387698 7.27544 0.236359 7.12261C0.085021 6.96978 0 6.7625 0 6.54637C0 6.33024 0.085021 6.12296 0.236359 5.97013C0.387698 5.8173 0.592956 5.73145 0.806981 5.73145H18.6226C18.8367 5.73145 19.0419 5.8173 19.1933 5.97013C19.3446 6.12296 19.4296 6.33024 19.4296 6.54637C19.4296 6.7625 19.3446 6.96978 19.1933 7.12261C19.0419 7.27544 18.8367 7.3613 18.6226 7.3613Z" fill="#E12D2F"/>
<path d="M46.1841 7.3613H28.3773C28.1633 7.3613 27.958 7.27544 27.8067 7.12261C27.6553 6.96978 27.5703 6.7625 27.5703 6.54637C27.5703 6.33024 27.6553 6.12296 27.8067 5.97013C27.958 5.8173 28.1633 5.73145 28.3773 5.73145H46.2018C46.4158 5.73145 46.6211 5.8173 46.7724 5.97013C46.9238 6.12296 47.0088 6.33024 47.0088 6.54637C47.0088 6.7625 46.9238 6.96978 46.7724 7.12261C46.6211 7.27544 46.4158 7.3613 46.2018 7.3613H46.1841Z" fill="#E12D2F"/>
<path d="M18.6227 13.0924H0.807078C0.606504 13.0712 0.420815 12.9757 0.28584 12.8244C0.150866 12.6731 0.0761719 12.4767 0.0761719 12.273C0.0761719 12.0694 0.150866 11.8729 0.28584 11.7216C0.420815 11.5703 0.606504 11.4748 0.807078 11.4536H18.6227C18.8233 11.4748 19.009 11.5703 19.144 11.7216C19.279 11.8729 19.3536 12.0694 19.3536 12.273C19.3536 12.4767 19.279 12.6731 19.144 12.8244C19.009 12.9757 18.8233 13.0712 18.6227 13.0924Z" fill="#E12D2F"/>
<path d="M46.1842 13.0925H28.3774C28.1768 13.0713 27.9911 12.9758 27.8562 12.8245C27.7212 12.6732 27.6465 12.4768 27.6465 12.2731C27.6465 12.0694 27.7212 11.873 27.8562 11.7217C27.9911 11.5704 28.1768 11.4749 28.3774 11.4537H46.2019C46.3156 11.4417 46.4305 11.4539 46.5392 11.4896C46.6479 11.5253 46.748 11.5837 46.8329 11.661C46.9178 11.7382 46.9857 11.8326 47.0322 11.9381C47.0787 12.0435 47.1027 12.1577 47.1027 12.2731C47.1027 12.3885 47.0787 12.5027 47.0322 12.6081C46.9857 12.7136 46.9178 12.808 46.8329 12.8852C46.748 12.9625 46.6479 13.0209 46.5392 13.0566C46.4305 13.0923 46.3156 13.1045 46.2019 13.0925H46.1842Z" fill="#E12D2F"/>
<path d="M5.67557 18.806H0.807078C0.606504 18.7848 0.420815 18.6894 0.28584 18.5381C0.150866 18.3867 0.0761719 18.1903 0.0761719 17.9866C0.0761719 17.783 0.150866 17.5865 0.28584 17.4352C0.420815 17.2839 0.606504 17.1884 0.807078 17.1672H5.67557C5.87614 17.1884 6.06183 17.2839 6.19681 17.4352C6.33178 17.5865 6.40648 17.783 6.40648 17.9866C6.40648 18.1903 6.33178 18.3867 6.19681 18.5381C6.06183 18.6894 5.87614 18.7848 5.67557 18.806Z" fill="#E12D2F"/>
<path d="M18.6227 18.806H13.7719C13.5713 18.7848 13.3857 18.6894 13.2507 18.5381C13.1157 18.3867 13.041 18.1903 13.041 17.9866C13.041 17.783 13.1157 17.5865 13.2507 17.4352C13.3857 17.2839 13.5713 17.1884 13.7719 17.1672H18.6227C18.8233 17.1884 19.0089 17.2839 19.1439 17.4352C19.2789 17.5865 19.3536 17.783 19.3536 17.9866C19.3536 18.1903 19.2789 18.3867 19.1439 18.5381C19.0089 18.6894 18.8233 18.7848 18.6227 18.806Z" fill="#E12D2F"/>
<path d="M33.2193 18.8073H28.3774C28.1768 18.7861 27.9911 18.6907 27.8562 18.5394C27.7212 18.388 27.6465 18.1916 27.6465 17.9879C27.6465 17.7843 27.7212 17.5878 27.8562 17.4365C27.9911 17.2852 28.1768 17.1897 28.3774 17.1685H33.237C33.3507 17.1565 33.4656 17.1688 33.5743 17.2045C33.683 17.2402 33.7831 17.2985 33.868 17.3758C33.9529 17.453 34.0208 17.5475 34.0673 17.6529C34.1138 17.7584 34.1378 17.8725 34.1378 17.9879C34.1378 18.1034 34.1138 18.2175 34.0673 18.323C34.0208 18.4284 33.9529 18.5228 33.868 18.6001C33.7831 18.6773 33.683 18.7357 33.5743 18.7714C33.4656 18.8071 33.3507 18.8194 33.237 18.8073H33.2193Z" fill="#E12D2F"/>
<path d="M46.1843 18.8073H41.3247C41.1241 18.7861 40.9384 18.6907 40.8034 18.5394C40.6684 18.388 40.5938 18.1916 40.5938 17.9879C40.5938 17.7843 40.6684 17.5878 40.8034 17.4365C40.9384 17.2852 41.1241 17.1897 41.3247 17.1685H46.1843C46.298 17.1565 46.4129 17.1688 46.5216 17.2045C46.6303 17.2402 46.7303 17.2985 46.8153 17.3758C46.9002 17.453 46.9681 17.5475 47.0146 17.6529C47.061 17.7584 47.0851 17.8725 47.0851 17.9879C47.0851 18.1034 47.061 18.2175 47.0146 18.323C46.9681 18.4284 46.9002 18.5228 46.8153 18.6001C46.7303 18.6773 46.6303 18.7357 46.5216 18.7714C46.4129 18.8071 46.298 18.8194 46.1843 18.8073Z" fill="#E12D2F"/>
<path d="M18.6227 24.5451H0.807078C0.606504 24.5239 0.420815 24.4284 0.28584 24.2771C0.150866 24.1257 0.0761719 23.9293 0.0761719 23.7257C0.0761719 23.522 0.150866 23.3256 0.28584 23.1742C0.420815 23.0229 0.606504 22.9275 0.807078 22.9062H18.6227C18.8233 22.9275 19.009 23.0229 19.144 23.1742C19.279 23.3256 19.3536 23.522 19.3536 23.7257C19.3536 23.9293 19.279 24.1257 19.144 24.2771C19.009 24.4284 18.8233 24.5239 18.6227 24.5451Z" fill="#E12D2F"/>
<path d="M46.1842 24.5464H28.3774C28.1768 24.5252 27.9911 24.4297 27.8562 24.2784C27.7212 24.1271 27.6465 23.9306 27.6465 23.727C27.6465 23.5233 27.7212 23.3269 27.8562 23.1755C27.9911 23.0242 28.1768 22.9288 28.3774 22.9076H46.2019C46.3156 22.8955 46.4305 22.9078 46.5392 22.9435C46.6479 22.9792 46.748 23.0376 46.8329 23.1148C46.9178 23.1921 46.9857 23.2865 47.0322 23.3919C47.0787 23.4974 47.1027 23.6115 47.1027 23.727C47.1027 23.8424 47.0787 23.9565 47.0322 24.062C46.9857 24.1674 46.9178 24.2619 46.8329 24.3391C46.748 24.4164 46.6479 24.4747 46.5392 24.5104C46.4305 24.5461 46.3156 24.5584 46.2019 24.5464H46.1842Z" fill="#E12D2F"/>
<path d="M18.6235 30.2776H0.807798C0.619984 30.243 0.450162 30.1429 0.327898 29.9948C0.205633 29.8467 0.138672 29.66 0.138672 29.4672C0.138672 29.2744 0.205633 29.0877 0.327898 28.9396C0.450162 28.7915 0.619984 28.6914 0.807798 28.6567H18.6235C18.824 28.6779 19.0097 28.7734 19.1447 28.9247C19.2797 29.076 19.3544 29.2725 19.3544 29.4761C19.3544 29.6798 19.2797 29.8762 19.1447 30.0276C19.0097 30.1789 18.824 30.2743 18.6235 30.2955V30.2776Z" fill="#E12D2F"/>
<path d="M46.1849 30.2777H28.3781C28.1903 30.243 28.0205 30.1429 27.8982 29.9949C27.7759 29.8468 27.709 29.6601 27.709 29.4673C27.709 29.2745 27.7759 29.0878 27.8982 28.9397C28.0205 28.7916 28.1903 28.6915 28.3781 28.6568H46.2026C46.3163 28.6448 46.4312 28.657 46.5399 28.6927C46.6486 28.7284 46.7487 28.7868 46.8336 28.8641C46.9185 28.9413 46.9865 29.0357 47.0329 29.1412C47.0794 29.2467 47.1034 29.3608 47.1034 29.4762C47.1034 29.5917 47.0794 29.7058 47.0329 29.8113C46.9865 29.9167 46.9185 30.0111 46.8336 30.0884C46.7487 30.1656 46.6486 30.224 46.5399 30.2597C46.4312 30.2954 46.3163 30.3076 46.2026 30.2956L46.1849 30.2777Z" fill="#E12D2F"/>
<path d="M23.4994 22.9061C23.3927 22.9073 23.2868 22.8871 23.1879 22.8466C23.089 22.8062 22.999 22.7464 22.9231 22.6706C22.8472 22.5948 22.787 22.5045 22.7459 22.4051C22.7048 22.3056 22.6836 22.1989 22.6836 22.0911V13.9061C22.7046 13.7035 22.7991 13.516 22.949 13.3797C23.0988 13.2434 23.2933 13.168 23.495 13.168C23.6967 13.168 23.8912 13.2434 24.041 13.3797C24.1909 13.516 24.2854 13.7035 24.3064 13.9061V22.0911C24.3064 22.3073 24.2214 22.5146 24.0701 22.6674C23.9187 22.8202 23.7135 22.9061 23.4994 22.9061Z" fill="#E12D2F"/>
<path d="M13.7716 20.4538H5.67522C5.46038 20.4539 5.25419 20.3683 5.10144 20.2157C4.9487 20.0631 4.86171 19.8559 4.85938 19.6389V16.3613C4.86171 16.1444 4.9487 15.9371 5.10144 15.7845C5.25419 15.6319 5.46038 15.5464 5.67522 15.5464H13.7716C13.9865 15.5464 14.1927 15.6319 14.3454 15.7845C14.4982 15.9371 14.5852 16.1444 14.5875 16.3613V19.6389C14.5852 19.8559 14.4982 20.0631 14.3454 20.2157C14.1927 20.3683 13.9865 20.4539 13.7716 20.4538ZM6.4822 18.8061H12.9647V17.1852H6.4822V18.8061Z" fill="#E12D2F"/>
<path d="M41.3244 20.4538H33.2191C33.0051 20.4538 32.7998 20.368 32.6485 20.2152C32.4971 20.0623 32.4121 19.8551 32.4121 19.6389V16.3613C32.4121 16.1452 32.4971 15.9379 32.6485 15.7851C32.7998 15.6322 33.0051 15.5464 33.2191 15.5464H41.3244C41.5384 15.5464 41.7437 15.6322 41.895 15.7851C42.0463 15.9379 42.1314 16.1452 42.1314 16.3613V19.6389C42.1314 19.8551 42.0463 20.0623 41.895 20.2152C41.7437 20.368 41.5384 20.4538 41.3244 20.4538ZM34.0349 18.8061H40.5174V17.1852H34.0349V18.8061Z" fill="#E12D2F"/>
</g>
<defs>
<clipPath id="clip0_1649:1149">
<rect width="47" height="36" fill="white"/>
</clipPath>
</defs>
</svg>
