<svg width="57" height="46" viewBox="0 0 57 46" fill="none" xmlns="http://www.w3.org/2000/svg">
<path d="M56.1713 14.0811C56.6243 14.0811 57 13.7054 57 13.2524V6.62242C57 6.16937 56.6243 5.79368 56.1713 5.79368H54.4033V2.33505C54.4033 1.45106 53.685 0.732811 52.801 0.732811H47.7181C46.8341 0.732811 46.1158 1.45106 46.1158 2.33505V5.79368H42.8008V2.33505C42.8008 1.45106 42.0826 0.732811 41.1986 0.732811H39.4859H37.3311H16.2258C15.3418 0.732811 14.6235 1.45106 14.6235 2.33505V5.79368H11.3086V2.33505C11.3086 1.45106 10.5903 0.732811 9.70632 0.732811H4.62335C3.73936 0.732811 3.02111 1.45106 3.02111 2.33505V5.79368H1.25312C0.800075 5.79368 0.424377 6.16937 0.424377 6.62242V13.2524C0.424377 13.7054 0.800075 14.0811 1.25312 14.0811H3.02111V37.5954H1.25312C0.800075 37.5954 0.424377 37.9711 0.424377 38.4241V45.0541C0.424377 45.5071 0.800075 45.8828 1.25312 45.8828H56.1713C56.6243 45.8828 57 45.5071 57 45.0541V38.4241C57 37.9711 56.6243 37.5954 56.1713 37.5954H54.4033V14.0811H56.1713ZM47.7733 2.3903H52.7458V5.79368H47.7733V2.3903ZM16.281 2.3903H37.3311H39.4859H41.1434V5.79368H16.281V2.3903ZM4.6786 2.3903H9.65107V5.79368H4.6786V2.3903ZM55.3425 39.2529V44.2253H2.08187V39.2529H46.7567H48.4363H55.3425ZM12.2809 14.0811H14.734H52.7458V37.5954H48.4363H46.7567H4.6786V14.0811H12.2809ZM14.734 12.4236H12.2809H2.08187V7.45117H55.3425V12.4236H14.734Z" fill="#E12D2F"/>
<path d="M22.1596 28.7996H27.8835V34.413C27.8835 34.7887 28.1266 35.1091 28.4912 35.2086C28.5686 35.2307 28.6459 35.2417 28.7122 35.2417C28.9995 35.2417 29.2647 35.0981 29.4194 34.8439L35.972 24.1366C36.1267 23.8824 36.1378 23.562 35.9831 23.2968C35.8394 23.0316 35.5632 22.8769 35.2648 22.8769H29.5409V17.2525C29.5409 16.8768 29.2978 16.5563 28.9332 16.4569C28.5796 16.3574 28.1929 16.5011 28.005 16.8215L21.4524 27.5399C21.2977 27.7941 21.2867 28.1145 21.4414 28.3797C21.585 28.6449 21.8612 28.7996 22.1596 28.7996ZM27.8835 20.2028V23.7167C27.8835 24.1697 28.2592 24.5454 28.7122 24.5454H33.7841L29.5409 31.4848V27.9819C29.5409 27.5289 29.1652 27.1532 28.7122 27.1532H23.6403L27.8835 20.2028Z" fill="#E12D2F"/>
<path d="M7.77258 26.667H9.67316V28.5676C9.67316 29.0206 10.0489 29.3963 10.5019 29.3963C10.955 29.3963 11.3307 29.0206 11.3307 28.5676V26.667H13.2312C13.6843 26.667 14.06 26.2913 14.06 25.8382C14.06 25.3852 13.6843 25.0095 13.2312 25.0095H11.3307V23.1089C11.3307 22.6559 10.955 22.2802 10.5019 22.2802C10.0489 22.2802 9.67316 22.6559 9.67316 23.1089V25.0095H7.77258C7.31953 25.0095 6.94383 25.3852 6.94383 25.8382C6.94383 26.2913 7.31953 26.667 7.77258 26.667Z" fill="#E12D2F"/>
<path d="M44.2042 26.667H49.6518C50.1048 26.667 50.4805 26.2913 50.4805 25.8382C50.4805 25.3852 50.1048 25.0095 49.6518 25.0095H44.2042C43.7511 25.0095 43.3754 25.3852 43.3754 25.8382C43.3754 26.2913 43.7401 26.667 44.2042 26.667Z" fill="#E12D2F"/>
</svg>
