<svg width="62" height="36" viewBox="0 0 62 36" fill="none" xmlns="http://www.w3.org/2000/svg">
<path d="M61.9876 29.3518L58.8449 3.73474C58.5835 1.60541 56.7912 0 54.675 0H11.7785C9.66265 0 7.86971 1.60541 7.60834 3.73474L7.47679 4.80693H7.3252C5.20902 4.80693 3.41639 6.41266 3.15534 8.54168L0.0123242 34.159C-0.0448102 34.625 0.0984991 35.0942 0.405004 35.4463C0.711509 35.7984 1.15312 36 1.6165 36H55.9307C56.3941 36 56.8354 35.7984 57.1422 35.4463C57.4484 35.0942 57.5917 34.625 57.5342 34.159L57.1704 31.1934H60.384C60.8474 31.1934 61.2887 30.9917 61.5949 30.6397C61.9017 30.2876 62.045 29.8184 61.9876 29.3518ZM1.98235 34.0336L5.08023 8.78428C5.2207 7.63784 6.18567 6.77336 7.3252 6.77336H50.2217C51.3612 6.77336 52.3265 7.63784 52.4673 8.78428L55.5645 34.0336H1.98235ZM56.9292 29.227L54.3915 8.54168C54.1302 6.41234 52.3379 4.80693 50.2217 4.80693H9.43116L9.53292 3.97735C9.6737 2.8309 10.639 1.96643 11.7785 1.96643H54.675C55.8145 1.96643 56.7798 2.8309 56.9206 3.97735L60.0178 29.227H56.9292ZM7.01901 14.8078C6.64022 14.424 6.64022 13.8012 7.01901 13.4174L10.9471 9.43464C11.3259 9.05057 11.9395 9.05057 12.3183 9.43464C12.6971 9.81839 12.6971 10.4412 12.3183 10.825L8.39023 14.8078C8.20084 14.9998 7.95273 15.0958 7.70462 15.0958C7.45651 15.0958 7.2084 14.9998 7.01901 14.8078ZM16.3508 10.0376C16.7296 10.4214 16.7296 11.0442 16.3508 11.428L8.1014 19.7923C7.91201 19.9844 7.6639 20.0804 7.41579 20.0804C7.16768 20.0804 6.91958 19.9844 6.73018 19.7923C6.35139 19.4082 6.35139 18.7861 6.73018 18.402L14.9796 10.0376C15.3584 9.65356 15.972 9.65356 16.3508 10.0376ZM41.4849 26.3874C41.1061 26.0033 41.1061 25.3812 41.4849 24.9971L45.4129 21.0143C45.7917 20.6302 46.4054 20.6302 46.7842 21.0143C47.1629 21.3984 47.1629 22.0206 46.7842 22.4046L42.8561 26.3874C42.6667 26.5794 42.4186 26.6755 42.1705 26.6755C41.9224 26.6755 41.6743 26.5794 41.4849 26.3874ZM50.817 21.6173C51.1958 22.0014 51.1958 22.6235 50.817 23.0076L42.5676 31.372C42.3782 31.564 42.1301 31.66 41.882 31.66C41.6339 31.66 41.3858 31.564 41.1964 31.372C40.8176 30.9879 40.8176 30.3657 41.1964 29.9816L49.4458 21.6173C49.8246 21.2332 50.4382 21.2332 50.817 21.6173Z" fill="#E12D2F"/>
</svg>
