<svg width="54" height="52" viewBox="0 0 54 52" fill="none" xmlns="http://www.w3.org/2000/svg">
<path d="M43.966 14.4951L45.0352 15.0805C46.0215 15.6205 46.8281 16.4279 47.3674 17.4154L47.9523 18.4858C48.0367 18.6403 48.2001 18.7366 48.378 18.7366C48.5559 18.7366 48.7194 18.6403 48.8037 18.4858L49.3887 17.4152C49.928 16.4279 50.7345 15.6205 51.7208 15.0805L52.79 14.4951C52.9438 14.4108 53.0393 14.2507 53.0393 14.0771C53.0393 13.9035 52.9438 13.7434 52.79 13.6592L51.7208 13.0737C50.7345 12.5338 49.928 11.7264 49.3887 10.7389L48.8037 9.66848C48.6351 9.35953 48.121 9.35953 47.9523 9.66848L47.3674 10.7391C46.8281 11.7264 46.0215 12.5338 45.0352 13.0737L43.966 13.6592C43.8122 13.7434 43.7168 13.9035 43.7168 14.0771C43.7168 14.2507 43.8122 14.4108 43.966 14.4951ZM45.5044 13.9096C46.6528 13.2809 47.5916 12.3415 48.2188 11.1929L48.378 10.9017L48.5373 11.1927C49.1645 12.3415 50.1033 13.2809 51.2516 13.9096L51.5576 14.0771L51.2516 14.2447C50.1033 14.8733 49.1645 15.8128 48.5373 16.9613L48.378 17.2525L48.2188 16.9616C47.5916 15.8128 46.6528 14.8733 45.5044 14.2447L45.1985 14.0771L45.5044 13.9096Z" fill="#E12D2F" stroke="#E12D2F" stroke-width="0.5"/>
<path d="M36.3595 9.7091L37.0723 10.0994C37.7299 10.4594 38.2675 10.9976 38.6271 11.656L39.017 12.3696C39.0733 12.4726 39.1823 12.5368 39.3008 12.5368C39.4194 12.5368 39.5284 12.4726 39.5846 12.3696L39.9746 11.6558C40.3342 10.9976 40.8718 10.4594 41.5294 10.0994L42.2422 9.7091C42.3447 9.65294 42.4083 9.54622 42.4083 9.43048C42.4083 9.31474 42.3447 9.20802 42.2422 9.15187L41.5294 8.76155C40.8718 8.40158 40.3342 7.86332 39.9746 7.20497L39.5846 6.49139C39.4722 6.28542 39.1295 6.28542 39.017 6.49139L38.6271 7.20512C38.2675 7.86332 37.7299 8.40157 37.0723 8.76155L36.3595 9.15186C36.257 9.20802 36.1934 9.31474 36.1934 9.43048C36.1934 9.54622 36.257 9.65294 36.3595 9.7091ZM37.3851 9.31878C38.1507 8.89969 38.7766 8.27338 39.1947 7.50769L39.3008 7.31355L39.407 7.50754C39.8251 8.27338 40.451 8.89969 41.2166 9.31878L41.4205 9.43048L41.2166 9.54218C40.451 9.96127 39.8251 10.5876 39.407 11.3533L39.3008 11.5474L39.1947 11.3534C38.7766 10.5876 38.1507 9.96127 37.3851 9.54218L37.1812 9.43048L37.3851 9.31878Z" fill="#E12D2F" stroke="#E12D2F" stroke-width="0.5"/>
<path d="M43.4923 4.37218L44.2051 4.7625C44.8627 5.12247 45.4004 5.66073 45.7599 6.31908L46.1499 7.03266C46.2061 7.13564 46.3151 7.19989 46.4337 7.19989C46.5523 7.19989 46.6612 7.13564 46.7175 7.03266L47.1074 6.31893C47.467 5.66073 48.0047 5.12248 48.6622 4.7625L49.375 4.37218C49.4775 4.31603 49.5412 4.20931 49.5412 4.09357C49.5412 3.97783 49.4775 3.87111 49.375 3.81495L48.6622 3.42464C48.0047 3.06466 47.467 2.5264 47.1074 1.86805L46.7175 1.15448C46.605 0.948508 46.2623 0.948508 46.1499 1.15448L45.7599 1.86821C45.4004 2.5264 44.8627 3.06466 44.2051 3.42463L43.4923 3.81495C43.3898 3.87111 43.3262 3.97783 43.3262 4.09357C43.3262 4.20931 43.3898 4.31602 43.4923 4.37218ZM44.5179 3.98187C45.2835 3.56278 45.9094 2.93647 46.3275 2.17078L46.4337 1.97663L46.5398 2.17062C46.958 2.93647 47.5838 3.56278 48.3494 3.98187L48.5534 4.09357L48.3494 4.20526C47.5838 4.62435 46.958 5.25066 46.5398 6.01635L46.4337 6.2105L46.3275 6.01651C45.9094 5.25066 45.2835 4.62435 44.5179 4.20526L44.314 4.09357L44.5179 3.98187Z" fill="#E12D2F" stroke="#E12D2F" stroke-width="0.5"/>
<path d="M40.114 34.4814C38.3327 34.4814 36.8828 35.9506 36.8828 37.7563C36.8828 39.5627 38.3327 41.0318 40.114 41.0318C41.8954 41.0318 43.3452 39.5627 43.3452 37.7563C43.3452 35.9506 41.8954 34.4814 40.114 34.4814ZM40.114 39.903C38.9567 39.903 38.0144 38.9402 38.0144 37.7563C38.0144 36.573 38.9567 35.6103 40.114 35.6103C41.2714 35.6103 42.2136 36.573 42.2136 37.7563C42.2136 38.9402 41.2714 39.903 40.114 39.903Z" fill="#E12D2F" stroke="#E12D2F" stroke-width="0.4"/>
<path d="M9.61793 34.4814C7.83656 34.4814 6.38672 35.9506 6.38672 37.7563C6.38672 39.5627 7.83656 41.0318 9.61793 41.0318C11.3993 41.0318 12.8491 39.5627 12.8491 37.7563C12.8491 35.9506 11.3993 34.4814 9.61793 34.4814ZM9.61793 39.903C8.46056 39.903 7.5183 38.9402 7.5183 37.7563C7.5183 36.573 8.46056 35.6103 9.61793 35.6103C10.7753 35.6103 11.7175 36.573 11.7175 37.7563C11.7175 38.9402 10.7753 39.903 9.61793 39.903Z" fill="#E12D2F" stroke="#E12D2F" stroke-width="0.4"/>
<path d="M33.0833 41.1768H16.6459C16.3335 41.1768 16.0801 41.4296 16.0801 41.7411C16.0801 42.0527 16.3335 42.3055 16.6459 42.3055H33.0833C33.3957 42.3055 33.6491 42.0527 33.6491 41.7411C33.6491 41.4296 33.3957 41.1768 33.0833 41.1768Z" fill="#E12D2F" stroke="#E12D2F" stroke-width="0.4"/>
<path d="M33.0833 35.1567H16.6459C16.3335 35.1567 16.0801 35.4096 16.0801 35.7212V38.5432C16.0801 38.8549 16.3335 39.1077 16.6459 39.1077H33.0833C33.3957 39.1077 33.6491 38.8549 33.6491 38.5432V35.7212C33.6491 35.4096 33.3957 35.1567 33.0833 35.1567ZM32.5175 37.9788H17.2117V36.2856H32.5175V37.9788Z" fill="#E12D2F" stroke="#E12D2F" stroke-width="0.4"/>
<path d="M46.2788 27.3047L42.1239 26.9244L41.762 24.4377L41.0901 20.2002C40.8102 18.4547 39.3191 17.1885 37.5443 17.1885H12.1816C10.4113 17.1885 8.92317 18.4547 8.64322 20.2002C8.63121 20.2778 7.53232 27.3765 7.60124 26.9313L3.45605 27.3047C2.14046 27.4209 1.10742 28.5286 1.10742 29.8688C1.10742 31.1872 2.13955 32.3102 3.45458 32.4256L4.27196 32.5C3.16031 33.4477 2.47254 34.8437 2.47254 36.3633V43.4604C2.47254 44.9538 3.69106 46.1693 5.18806 46.1693H6.62832V48.0581C6.62832 49.838 8.08038 51.2866 9.86469 51.2866H14.2172C16.0015 51.2866 17.4535 49.838 17.4535 48.0581V46.1693H32.2776V48.0581C32.2776 49.838 33.7297 51.2866 35.514 51.2866H39.8664C41.6508 51.2866 43.1028 49.838 43.1028 48.0581V46.1693H44.5453C46.0386 46.1693 47.2534 44.9538 47.2534 43.4604V36.3633C47.2534 34.8429 46.5655 33.4469 45.4556 32.5002L46.2766 32.4256C47.5989 32.3102 48.6186 31.2006 48.6186 29.8688C48.6186 28.5459 47.5901 27.4193 46.2788 27.3047ZM9.76007 20.378C9.95162 19.1838 10.9705 18.3173 12.1816 18.3173H37.5443C38.7599 18.3173 39.7817 19.1838 39.9725 20.3773L40.6429 24.6068L41.0666 27.5181C41.067 27.5215 41.0653 27.5247 41.0658 27.5281L41.5485 30.8296L41.6124 31.2688H39.4153C39.2441 29.7704 38.716 25.1769 38.3488 22.2521C38.2199 21.2202 37.3344 20.442 36.2905 20.442H13.4399C12.396 20.442 11.5105 21.2202 11.3816 22.2521C11.015 25.1769 10.4871 29.7704 10.3158 31.2688H8.11353C10.596 14.2049 7.34599 36.3376 9.76007 20.378ZM11.4545 31.2681C11.6409 29.6417 12.1492 25.2256 12.5043 22.3917C12.5633 21.9236 12.9655 21.5708 13.4399 21.5708H36.2905C36.7649 21.5708 37.1671 21.9236 37.2261 22.3917C37.5812 25.2256 38.0902 29.6417 38.2766 31.2681H11.4545ZM2.23901 29.8688C2.23901 29.1206 2.81893 28.4941 3.55698 28.4291L7.43401 28.0801C7.42298 28.1558 6.93308 31.5196 6.96426 31.3056C6.81205 31.3237 6.31762 31.4145 5.99254 31.5231L3.55551 31.3011C2.81732 31.2365 2.23901 30.6074 2.23901 29.8688ZM16.3219 48.0581C16.3219 49.2156 15.3775 50.1577 14.2172 50.1577H9.86469C8.70437 50.1577 7.75991 49.2156 7.75991 48.0581V46.1693H16.3219V48.0581ZM41.9712 48.0581C41.9712 49.2156 41.0268 50.1577 39.8664 50.1577H35.514C34.3536 50.1577 33.4092 49.2156 33.4092 48.0581V46.1693H41.9712V48.0581ZM46.1218 36.3633V43.4604C46.1218 44.332 45.4146 45.0405 44.5453 45.0405C35.4846 45.0405 13.0727 45.0405 5.18806 45.0405C4.31432 45.0405 3.60413 44.332 3.60413 43.4604V36.3633C3.60413 34.6832 4.66794 33.1825 6.25702 32.6269C7.39766 32.2115 5.80011 32.4767 42.1458 32.3976C44.3231 32.3976 46.1218 34.1589 46.1218 36.3633ZM46.1756 31.3011L43.7327 31.5231C43.4014 31.4124 42.8953 31.3215 42.7617 31.3056L42.668 30.6633L42.2911 28.0735L46.1778 28.4291C46.9116 28.493 47.487 29.1258 47.487 29.8688C47.487 30.6076 46.9239 31.2354 46.1756 31.3011Z" fill="#E12D2F" stroke="#E12D2F" stroke-width="0.4"/>
</svg>
