<svg width="53" height="48" viewBox="0 0 53 48" fill="none" xmlns="http://www.w3.org/2000/svg">
<path d="M28.6611 20.0301C27.8709 20.0301 27.0985 20.2638 26.4415 20.7018C25.7844 21.1397 25.2724 21.7622 24.97 22.4904C24.6676 23.2187 24.5884 24.0201 24.7426 24.7932C24.8968 25.5664 25.2773 26.2765 25.836 26.8339C26.3948 27.3913 27.1067 27.7709 27.8817 27.9247C28.6567 28.0785 29.46 27.9995 30.1901 27.6979C30.9201 27.3962 31.5441 26.8854 31.9831 26.23C32.4221 25.5745 32.6564 24.8039 32.6564 24.0157C32.6564 22.9586 32.2355 21.9449 31.4862 21.1974C30.737 20.45 29.7207 20.0301 28.6611 20.0301ZM28.6611 26.2775C28.2083 26.2775 27.7657 26.1434 27.3893 25.8923C27.013 25.6411 26.7198 25.2841 26.547 24.8666C26.3742 24.4491 26.3295 23.9898 26.4185 23.5469C26.5076 23.104 26.7264 22.6975 27.0473 22.3788C27.3682 22.0601 27.7767 21.8435 28.2211 21.7566C28.6654 21.6697 29.1256 21.7163 29.5434 21.8905C29.9612 22.0648 30.3177 22.3588 30.5678 22.7353C30.8179 23.1119 30.9504 23.554 30.9484 24.0057C30.9484 24.3049 30.8892 24.6011 30.7741 24.8774C30.6591 25.1537 30.4904 25.4046 30.2779 25.6156C30.0654 25.8267 29.8131 25.9939 29.5357 26.1074C29.2582 26.221 28.961 26.2788 28.6611 26.2775Z" fill="#E12D2F"/>
<path d="M28.6612 29.4677C28.1864 29.4697 27.7228 29.6117 27.3287 29.8759C26.9346 30.1401 26.6276 30.5146 26.4464 30.9524C26.2652 31.3902 26.2178 31.8717 26.3101 32.3363C26.4025 32.8009 26.6306 33.2279 26.9657 33.5635C27.3007 33.8991 27.7278 34.1284 28.1931 34.2225C28.6585 34.3166 29.1413 34.2713 29.5809 34.0923C30.0205 33.9133 30.3973 33.6086 30.6637 33.2166C30.9302 32.8245 31.0744 32.3626 31.0784 31.889C31.081 31.5711 31.0204 31.2559 30.9 30.9616C30.7796 30.6673 30.6018 30.3998 30.3769 30.1745C30.1521 29.9493 29.8846 29.7709 29.5901 29.6495C29.2956 29.5282 28.9799 29.4664 28.6612 29.4677ZM28.6612 32.5665C28.4758 32.5665 28.298 32.4931 28.1668 32.3622C28.0357 32.2314 27.962 32.054 27.962 31.8691C27.9601 31.7283 28.0002 31.5902 28.0774 31.4723C28.1546 31.3545 28.2652 31.2622 28.3952 31.2075C28.5252 31.1527 28.6686 31.1379 28.8071 31.1648C28.9456 31.1918 29.0728 31.2594 29.1726 31.3589C29.2724 31.4585 29.3401 31.5854 29.3672 31.7236C29.3942 31.8617 29.3793 32.0048 29.3244 32.1345C29.2695 32.2641 29.1771 32.3745 29.0589 32.4515C28.9408 32.5284 28.8023 32.5685 28.6612 32.5665Z" fill="#E12D2F"/>
<path d="M28.6613 18.7833C29.1378 18.7853 29.6042 18.6462 30.0014 18.3835C30.3985 18.1208 30.7086 17.7465 30.8923 17.3079C31.0761 16.8693 31.1252 16.3861 31.0334 15.9197C30.9417 15.4532 30.7132 15.0244 30.377 14.6876C30.0407 14.3507 29.6118 14.121 29.1446 14.0276C28.6774 13.9341 28.1929 13.9811 27.7524 14.1625C27.312 14.344 26.9355 14.6518 26.6705 15.0469C26.4056 15.442 26.2641 15.9067 26.2641 16.382C26.2641 17.0172 26.5164 17.6264 26.9656 18.0765C27.4149 18.5265 28.0246 18.7807 28.6613 18.7833ZM28.6613 15.6845C28.8024 15.6826 28.9409 15.7226 29.059 15.7996C29.1772 15.8766 29.2696 15.9869 29.3245 16.1166C29.3794 16.2463 29.3943 16.3893 29.3672 16.5275C29.3402 16.6656 29.2725 16.7926 29.1727 16.8921C29.0729 16.9917 28.9456 17.0593 28.8071 17.0862C28.6687 17.1132 28.5252 17.0984 28.3953 17.0436C28.2653 16.9888 28.1546 16.8966 28.0775 16.7787C28.0003 16.6609 27.9602 16.5228 27.9621 16.382C27.9647 16.1978 28.0392 16.0219 28.1698 15.8917C28.3003 15.7614 28.4767 15.6871 28.6613 15.6845Z" fill="#E12D2F"/>
<path d="M23.3071 24.1236C23.3071 23.6482 23.1657 23.1835 22.9008 22.7884C22.6358 22.3933 22.2593 22.0855 21.8188 21.9041C21.3784 21.7226 20.8939 21.6757 20.4267 21.7691C19.9595 21.8626 19.5306 22.0923 19.1943 22.4291C18.8581 22.7659 18.6296 23.1948 18.5378 23.6612C18.4461 24.1277 18.4952 24.6108 18.6789 25.0494C18.8626 25.488 19.1727 25.8624 19.5699 26.125C19.9671 26.3877 20.4334 26.5269 20.91 26.5249C21.226 26.5262 21.5391 26.4649 21.8312 26.3446C22.1233 26.2243 22.3885 26.0473 22.6115 25.8239C22.8345 25.6005 23.0108 25.3352 23.1303 25.0433C23.2497 24.7514 23.3098 24.4388 23.3071 24.1236ZM20.2008 24.1236C20.2008 23.9359 20.2755 23.756 20.4085 23.6233C20.5415 23.4906 20.7219 23.4161 20.91 23.4161C21.098 23.4161 21.2784 23.4906 21.4114 23.6233C21.5444 23.756 21.6191 23.9359 21.6191 24.1236C21.6191 24.3112 21.5444 24.4911 21.4114 24.6238C21.2784 24.7565 21.098 24.831 20.91 24.831C20.7219 24.831 20.5415 24.7565 20.4085 24.6238C20.2755 24.4911 20.2008 24.3112 20.2008 24.1236Z" fill="#E12D2F"/>
<path d="M34.0747 24.1253C34.0727 24.6011 34.2124 25.0667 34.4762 25.4632C34.7399 25.8596 35.1158 26.1689 35.556 26.3519C35.9963 26.5349 36.4811 26.5833 36.949 26.4909C37.4168 26.3986 37.8467 26.1697 38.1839 25.8333C38.5212 25.4968 38.7506 25.068 38.8432 24.6013C38.9358 24.1346 38.8872 23.6509 38.7038 23.2117C38.5204 22.7725 38.2103 22.3976 37.8129 22.1345C37.4155 21.8714 36.9488 21.732 36.4718 21.734C35.8369 21.7366 35.2287 21.9894 34.7797 22.4373C34.3307 22.8852 34.0773 23.4919 34.0747 24.1253ZM37.181 24.1253C37.181 24.3129 37.1063 24.4929 36.9733 24.6256C36.8403 24.7582 36.6599 24.8328 36.4718 24.8328C36.3792 24.8328 36.2874 24.8144 36.2019 24.7787C36.1165 24.7431 36.0389 24.6908 35.9739 24.625C35.9088 24.5591 35.8575 24.4811 35.823 24.3953C35.7884 24.3095 35.7713 24.2178 35.7727 24.1253C35.7727 23.9403 35.8463 23.7629 35.9774 23.6321C36.1086 23.5013 36.2864 23.4278 36.4718 23.4278C36.6503 23.438 36.818 23.516 36.9406 23.6457C37.0632 23.7754 37.1314 23.947 37.1311 24.1253H37.181Z" fill="#E12D2F"/>
<path d="M23.1775 27.2026C22.8623 27.2013 22.55 27.2622 22.2585 27.3819C21.9671 27.5016 21.7023 27.6777 21.4794 27.9C21.2566 28.1224 21.0801 28.3865 20.96 28.6772C20.84 28.968 20.7789 29.2795 20.7803 29.5939C20.7771 30.0698 20.9163 30.5358 21.1801 30.9323C21.4439 31.3288 21.8203 31.6378 22.2611 31.8197C22.702 32.0016 23.1872 32.0481 23.6547 31.9534C24.1222 31.8586 24.5507 31.6269 24.8854 31.2878C25.3344 30.8378 25.5864 30.2288 25.5864 29.5939C25.5864 28.9591 25.3344 28.35 24.8854 27.9001C24.6617 27.6761 24.3954 27.499 24.1021 27.3792C23.8088 27.2594 23.4944 27.1994 23.1775 27.2026ZM23.6769 30.0921C23.5428 30.2212 23.3638 30.2933 23.1775 30.2933C22.9911 30.2933 22.8121 30.2212 22.678 30.0921C22.6134 30.0264 22.5625 29.9485 22.5282 29.863C22.4939 29.7775 22.477 29.686 22.4783 29.5939C22.4755 29.5016 22.4917 29.4097 22.5259 29.3238C22.56 29.2379 22.6114 29.1599 22.6769 29.0946C22.7424 29.0293 22.8206 28.978 22.9067 28.9439C22.9927 28.9098 23.0849 28.8937 23.1775 28.8965C23.3172 28.8944 23.4544 28.9342 23.5712 29.0107C23.6881 29.0872 23.7793 29.1969 23.833 29.3256C23.8868 29.4543 23.9006 29.5961 23.8728 29.7328C23.845 29.8694 23.7767 29.9946 23.6769 30.0921Z" fill="#E12D2F"/>
<path d="M34.1546 21.0564C34.7917 21.052 35.4016 20.7979 35.8526 20.3489C36.1876 20.0131 36.4155 19.586 36.5077 19.1213C36.5999 18.6565 36.5523 18.175 36.3707 17.7372C36.1892 17.2994 35.882 16.925 35.4876 16.661C35.0933 16.397 34.6295 16.2553 34.1546 16.2537C33.6775 16.2505 33.2104 16.3894 32.8129 16.6526C32.4154 16.9158 32.1057 17.2912 31.9234 17.731C31.741 18.1708 31.6944 18.6548 31.7894 19.1212C31.8843 19.5875 32.1167 20.015 32.4566 20.3489C32.6786 20.5731 32.943 20.751 33.2345 20.8724C33.526 20.9939 33.8387 21.0564 34.1546 21.0564ZM33.6552 18.1568C33.7873 18.0239 33.9669 17.9487 34.1546 17.9476C34.3418 17.9508 34.5206 18.0257 34.654 18.1568C34.7834 18.2906 34.8557 18.4692 34.8557 18.655C34.8557 18.8409 34.7834 19.0195 34.654 19.1532C34.5199 19.2823 34.3409 19.3544 34.1546 19.3544C33.9683 19.3544 33.7892 19.2823 33.6552 19.1532C33.5887 19.0883 33.5359 19.0108 33.4999 18.9252C33.4639 18.8397 33.4453 18.7478 33.4453 18.655C33.4453 18.5623 33.4639 18.4704 33.4999 18.3848C33.5359 18.2993 33.5887 18.2218 33.6552 18.1568Z" fill="#E12D2F"/>
<path d="M23.1775 21.0564C23.6587 21.0637 24.1311 20.9264 24.533 20.6623C24.9349 20.3982 25.2478 20.0195 25.431 19.5755C25.6142 19.1315 25.6592 18.6428 25.5601 18.173C25.4611 17.7032 25.2225 17.274 24.8755 16.9412C24.6548 16.7153 24.3907 16.5362 24.0989 16.4146C23.8071 16.293 23.4937 16.2315 23.1775 16.2338C22.8616 16.2332 22.5487 16.2955 22.2571 16.417C21.9656 16.5384 21.7012 16.7167 21.4795 16.9412C21.033 17.3925 20.7827 18.0011 20.7827 18.6351C20.7827 19.2692 21.033 19.8777 21.4795 20.329C21.6995 20.5572 21.9631 20.7391 22.2548 20.864C22.5464 20.9889 22.8601 21.0543 23.1775 21.0564ZM22.6781 18.1568C22.8126 18.0274 22.9907 17.9528 23.1775 17.9476C23.3652 17.9487 23.5448 18.0239 23.6769 18.1568C23.7434 18.2218 23.7961 18.2993 23.8322 18.3848C23.8682 18.4704 23.8868 18.5622 23.8868 18.655C23.8868 18.7478 23.8682 18.8397 23.8322 18.9252C23.7961 19.0108 23.7434 19.0883 23.6769 19.1532C23.541 19.2663 23.3676 19.3246 23.1907 19.3166C23.0139 19.3087 22.8464 19.235 22.7213 19.1102C22.5961 18.9853 22.5223 18.8183 22.5143 18.6419C22.5063 18.4655 22.5647 18.2925 22.6781 18.1568Z" fill="#E12D2F"/>
<path d="M34.1549 27.2025C33.5182 27.2025 32.9075 27.4541 32.4563 27.9023C32.0052 28.3505 31.7504 28.9587 31.7477 29.5938C31.7504 30.2299 32.0048 30.8391 32.4557 31.2889C32.9066 31.7387 33.5173 31.9925 34.1549 31.9951C34.7916 31.9925 35.4013 31.7383 35.8506 31.2883C36.2999 30.8382 36.5521 30.229 36.5521 29.5938C36.5534 29.2794 36.4923 28.9679 36.3723 28.6771C36.2523 28.3864 36.0758 28.1223 35.8529 27.8999C35.6301 27.6776 35.3653 27.5015 35.0738 27.3818C34.7824 27.2621 34.4701 27.2012 34.1549 27.2025ZM34.6543 30.092C34.5203 30.2211 34.3412 30.2932 34.1549 30.2932C33.9686 30.2932 33.7896 30.2211 33.6555 30.092C33.5877 30.0281 33.534 29.9508 33.4978 29.865C33.4617 29.7792 33.444 29.6869 33.4457 29.5938C33.4452 29.501 33.4635 29.4089 33.4995 29.3233C33.5356 29.2377 33.5886 29.1602 33.6555 29.0956C33.7214 29.0312 33.7995 28.9804 33.8852 28.9462C33.9709 28.912 34.0626 28.895 34.1549 28.8963C34.3406 28.8978 34.5189 28.969 34.6543 29.0956C34.783 29.2297 34.8546 29.4082 34.8541 29.5938C34.8554 29.6859 34.8384 29.7773 34.8042 29.8628C34.7699 29.9484 34.7189 30.0262 34.6543 30.092Z" fill="#E12D2F"/>
<path d="M28.661 11.1621C26.1146 11.1621 23.6253 11.9154 21.5081 13.3267C19.3908 14.7379 17.7406 16.7438 16.7661 19.0907C15.7917 21.4376 15.5367 24.02 16.0335 26.5114C16.5303 29.0028 17.7565 31.2913 19.5571 33.0875C21.3576 34.8837 23.6517 36.107 26.1492 36.6025C28.6467 37.0981 31.2354 36.8438 33.588 35.8716C35.9405 34.8995 37.9513 33.2534 39.366 31.1412C40.7807 29.0291 41.5358 26.5459 41.5358 24.0057C41.5332 20.6002 40.1759 17.3349 37.7619 14.9269C35.348 12.5188 32.0748 11.1648 28.661 11.1621ZM28.661 35.1455C26.45 35.1455 24.2886 34.4913 22.4504 33.2657C20.6122 32.0401 19.1796 30.2982 18.3339 28.2603C17.4883 26.2223 17.2675 23.98 17.6996 21.8169C18.1317 19.6538 19.1972 17.6671 20.7613 16.1082C22.3254 14.5493 24.3178 13.4882 26.4866 13.0591C28.6553 12.63 30.9029 12.8522 32.9451 13.6976C34.9872 14.5431 36.7321 15.9737 37.959 17.8086C39.1859 19.6434 39.8398 21.8001 39.8378 24.0057C39.8325 26.9603 38.6529 29.7922 36.5577 31.8804C34.4625 33.9687 31.6227 35.1428 28.661 35.1455Z" fill="#E12D2F"/>
<path d="M47.0594 8.54164C44.8515 5.92512 42.1083 3.80973 39.0138 2.33731C35.9193 0.864886 32.545 0.0694555 29.1171 0.00434817C25.6892 -0.0607592 22.287 0.605962 19.1386 1.95981C15.9901 3.31366 13.1682 5.32334 10.862 7.85412L8.32499 5.3133C8.24358 5.22995 8.14545 5.16468 8.03701 5.12176C7.92858 5.07883 7.81228 5.05922 7.69573 5.0642C7.46869 5.07887 7.25675 5.18279 7.10643 5.35316C4.64998 8.17869 2.77555 11.4593 1.59017 15.0075C0.4048 18.5558 -0.0682977 22.3022 0.1979 26.0329C0.464098 29.7636 1.46438 33.4054 3.14161 36.7504C4.81885 40.0954 7.14018 43.0781 9.97305 45.528C10.1279 45.6631 10.3267 45.7374 10.5324 45.7373C10.6439 45.7381 10.7545 45.7165 10.8575 45.6737C10.9605 45.6309 11.0537 45.5678 11.1317 45.4882L13.7786 42.8477C18.4569 46.5275 24.3377 48.3443 30.282 47.946C36.2263 47.5478 41.8108 44.963 45.9539 40.6923C50.097 36.4215 52.5038 30.7688 52.708 24.8292C52.9123 18.8895 50.8994 13.0855 47.0594 8.54164ZM10.4924 43.7245C5.46777 39.116 2.39046 32.772 1.88583 25.9816C1.3812 19.1912 3.48712 12.4639 7.77564 7.16661L9.77329 9.15941L9.68339 9.27898C9.58351 9.39855 9.48363 9.52808 9.39373 9.65761L9.10408 10.0861L8.80443 10.5245L8.53475 10.923L8.21512 11.4312L8.01536 11.77L7.84556 12.039L7.73569 12.2582C7.5559 12.5671 7.3861 12.876 7.22628 13.1948L6.96659 13.7329C6.83674 14.0019 6.71688 14.2809 6.59702 14.5499C6.47717 14.819 6.4472 14.8887 6.38727 15.0681C6.23412 15.4268 6.09428 15.7954 5.96777 16.1741L5.81794 16.6224L5.54826 17.5092L5.38845 17.9377C5.27858 18.3462 5.18868 18.7547 5.09879 19.1633C5.09879 19.2928 5.09879 19.4223 5.02887 19.5519C4.95895 19.9205 4.89902 20.2992 4.83909 20.6778V20.9169C4.77916 21.3653 4.73921 21.8137 4.70925 22.2621C4.70925 22.3717 4.70925 22.4813 4.70925 22.6009C4.70925 23.0592 4.70925 23.5275 4.70925 23.9958C4.70925 24.4641 4.70925 24.763 4.70925 25.1417V25.5801C4.70925 25.8093 4.70925 26.0384 4.75919 26.2676L4.81912 26.8256C4.81912 27.0049 4.81912 27.1743 4.88903 27.3437C4.95895 27.5131 4.94896 27.7821 4.98892 28.0013L5.04885 28.3202C5.28479 29.5602 5.61878 30.7796 6.04767 31.967V32.0667C6.14755 32.3656 6.26741 32.6645 6.38727 32.9535V33.0132C6.86854 34.1895 7.44302 35.3257 8.10525 36.411L8.29503 36.7298C8.41489 36.9191 8.53475 37.1084 8.66459 37.2978L8.94426 37.7063L9.29385 38.1945L9.65343 38.6728L9.98304 39.1012L10.3626 39.5297L10.7222 39.9581C10.9819 40.2471 11.2416 40.5261 11.5212 40.7951C11.6211 40.9047 11.731 41.0143 11.8409 41.114C11.9507 41.2136 12.2004 41.4727 12.3902 41.6421L12.4701 41.7118L10.4924 43.7245ZM10.7921 37.3974C10.6023 37.1583 10.4225 36.8992 10.2427 36.6501C10.0629 36.401 10.0629 36.3711 9.96306 36.2316C9.86318 36.0921 9.77329 35.9327 9.68339 35.7733C9.5935 35.6138 9.47364 35.4445 9.37376 35.2751C9.27388 35.1057 9.23392 35.0359 9.17399 34.9164C8.80146 34.2521 8.46795 33.5667 8.17517 32.8638L8.10525 32.6745C8.00537 32.4353 7.90549 32.1962 7.81559 31.9571V31.8176C7.53536 31.0635 7.29531 30.2952 7.09644 29.5159C7.09644 29.4162 7.0465 29.3266 7.02652 29.2269C7.00654 29.1273 6.91665 28.7885 6.86671 28.5693C6.81677 28.3501 6.86671 28.2903 6.7868 28.1608C6.7868 27.8818 6.68692 27.6028 6.64697 27.3238C6.60701 27.0448 6.57705 26.8455 6.54708 26.6064C6.51712 26.3672 6.54708 26.3174 6.54708 26.1779C6.54708 26.0384 6.54708 25.6997 6.48715 25.4605C6.42722 25.2214 6.48715 25.2114 6.48715 25.0919C6.48715 24.7331 6.48715 24.3645 6.48715 24.0058C6.48715 23.6471 6.48715 23.2087 6.48715 22.8101V22.4514C6.48715 22.1525 6.48715 21.8635 6.55707 21.5746C6.55707 21.455 6.55707 21.3354 6.55707 21.2159C6.61034 20.8372 6.67027 20.4586 6.73686 20.08C6.73686 19.9803 6.73686 19.8707 6.79679 19.7611C6.79679 19.4921 6.90666 19.2131 6.96659 18.9441L7.08645 18.4558L7.26624 17.8082L7.41606 17.31C7.51594 16.9812 7.62581 16.6523 7.74567 16.3136L7.95543 15.7755L8.10525 15.2574C8.18516 15.078 8.26506 14.8887 8.35496 14.7094C8.44485 14.53 8.52476 14.3407 8.61465 14.1514C8.70455 13.9621 8.7445 13.8923 8.80443 13.7727L11.2216 15.7655C9.73519 18.9252 9.13596 22.4279 9.48775 25.9004C9.83955 29.373 11.1292 32.6853 13.2192 35.4843L10.7921 37.3974ZM43.0641 41.0642C39.034 44.4494 33.9347 46.3059 28.6661 46.3059C23.3975 46.3059 18.2982 44.4494 14.268 41.0642C13.8785 40.7353 13.4989 40.3966 13.1393 40.0677L12.8597 39.7987C12.57 39.5098 12.2803 39.2108 12.0007 38.902C11.9595 38.8443 11.9126 38.7909 11.8608 38.7425L14.8573 36.3113L14.9772 36.1918L15.0271 36.112V36.0523C15.0309 36.0225 15.0309 35.9924 15.0271 35.9626V35.9028C15.0312 35.8597 15.0312 35.8163 15.0271 35.7733V35.6138C15.0271 35.6138 15.0271 35.564 15.0271 35.5441C15.0271 35.5242 15.0271 35.4843 15.0271 35.4544V35.3747V35.295L14.9472 35.1754C12.413 32.0057 11.0546 28.0599 11.1017 24.0058C11.1004 21.1935 11.7861 18.4234 13.0994 15.9349C13.1369 15.8558 13.1637 15.772 13.1793 15.6858C13.1897 15.6031 13.1897 15.5194 13.1793 15.4367C13.1598 15.3567 13.1295 15.2796 13.0894 15.2076C13.0406 15.1319 12.9799 15.0646 12.9096 15.0083L9.65343 12.2781C9.67298 12.2362 9.69638 12.1962 9.72335 12.1586C9.96306 11.77 10.2228 11.3814 10.4924 11.0127C10.4924 10.933 10.6023 10.8633 10.6523 10.7935C10.9419 10.3949 11.2416 10.0063 11.5612 9.63768C13.6604 7.15137 16.279 5.15273 19.2336 3.78165C22.1882 2.41057 25.4074 1.70017 28.6661 1.70017C31.9247 1.70017 35.144 2.41057 38.0986 3.78165C41.0532 5.15273 43.6717 7.15137 45.7709 9.63768C47.6623 11.8782 49.0925 14.4685 49.9801 17.2606C50.8677 20.0527 51.1951 22.9919 50.9438 25.9103C50.6924 28.8287 49.8672 31.6691 48.5151 34.2692C47.1631 36.8693 45.3109 39.1783 43.0641 41.0642Z" fill="#E12D2F"/>
</svg>
