<svg width="45" height="45" viewBox="0 0 45 45" fill="none" xmlns="http://www.w3.org/2000/svg">
<mask id="path-1-inside-1_54:38" fill="white">
<path d="M3.27009 22.4646H18.645V13.5585H17.8297C16.8549 13.5585 16.0574 12.7609 16.0574 11.7861V10.1201H13.0001V11.4494C13.0001 12.6103 12.052 13.5585 10.8911 13.5585H8.45414C7.29327 13.5585 6.34507 12.6103 6.34507 11.4494V2.1091C6.34507 0.948208 7.29327 0 8.45414 0H10.8822C12.0431 0 12.9913 0.948208 12.9913 2.1091V3.43836H16.0485V1.77235C16.0485 0.797558 16.8461 0 17.8209 0H28.4814C28.7738 0 29.0574 0.0708941 29.3144 0.20382L38.2735 4.97145C38.5571 5.1221 38.7077 5.44998 38.6279 5.76014C38.5482 6.0703 38.2646 6.29185 37.9456 6.29185H30.2892C30.0853 6.29185 29.9258 6.46022 29.9258 6.65518V11.7773C29.9258 12.7521 29.1283 13.5496 28.1535 13.5496H25.2292V22.4646H30.2714C31.5564 19.6465 34.4098 17.7855 37.5202 17.7855C39.647 17.7855 41.6498 18.6186 43.1562 20.1251C43.9449 20.9137 44.5475 21.8531 44.9551 22.9165C45.0349 23.1292 45.0083 23.3773 44.8754 23.5634C44.7425 23.7495 44.5298 23.8647 44.2994 23.8647H37.9722C36.9354 23.8647 36.0935 24.7154 36.0935 25.7611C36.0935 26.798 36.9354 27.6487 37.9722 27.6487H44.2994C44.5298 27.6487 44.7513 27.7639 44.8754 27.95C45.0083 28.1449 45.0349 28.3842 44.9551 28.5969C44.5475 29.6603 43.9449 30.6085 43.1474 31.3972C41.6409 32.9037 39.6382 33.7367 37.5114 33.7367C35.3846 33.7367 33.3819 32.9037 31.8843 31.3972C31.2019 30.7148 30.6702 29.9262 30.2714 29.0488H25.2292V41.7123C25.2292 43.529 23.7493 45 21.9415 45C20.1249 45 18.6539 43.5201 18.6539 41.7123V29.0666H3.28782C1.47118 29.0666 0.000156403 27.5866 0.000156403 25.77C-0.0175667 23.9445 1.46232 22.4646 3.27009 22.4646ZM11.5911 9.41119V4.1473V2.1091C11.5911 1.71918 11.2721 1.40902 10.8911 1.40902H8.45414C8.06423 1.40902 7.75407 1.72804 7.75407 2.1091V11.4405C7.75407 11.8304 8.07309 12.1406 8.45414 12.1406H10.8822C11.2721 12.1406 11.5823 11.8216 11.5823 11.4405V9.41119H11.5911ZM16.0485 4.84738H12.9913V8.70224H16.0485V4.84738ZM37.5114 32.3366C39.266 32.3366 41.7738 31.4858 43.1828 29.0577H37.9633C36.1467 29.0577 34.6757 27.5778 34.6757 25.7611C34.6757 23.9445 36.1467 22.4646 37.9633 22.4646H43.1828C41.5523 20.0985 39.266 19.1946 37.5114 19.1946C34.8174 19.1946 30.8829 21.2771 30.9538 25.7611C31.0424 31.0073 35.7656 32.3366 37.5114 32.3366ZM25.2292 27.6575H29.7752C29.7575 27.5955 29.5536 26.0624 29.5536 25.77C29.5536 25.4776 29.7663 23.9356 29.784 23.8736H25.238V27.6575H25.2292ZM20.054 23.1735V28.3576V41.7211C20.054 42.758 20.8958 43.6087 21.9415 43.6087C22.9783 43.6087 23.829 42.7668 23.829 41.7211V28.3576V23.1646V13.5585H20.0629V23.1735H20.054ZM28.1535 12.1495C28.3573 12.1495 28.5168 11.9811 28.5168 11.7861V6.66404C28.5168 5.68925 29.3144 4.89169 30.2892 4.89169H35.1187L28.6586 1.45333C28.6055 1.42674 28.5434 1.40902 28.4903 1.40902H17.8297C17.6259 1.40902 17.4664 1.57739 17.4664 1.77235V4.1473V9.41119V11.7861C17.4664 11.99 17.6259 12.1495 17.8297 12.1495H28.1535ZM3.27009 27.6575H18.645V23.8736H3.27895C2.24215 23.8736 1.39143 24.7243 1.39143 25.77C1.39143 26.8068 2.23328 27.6575 3.27009 27.6575Z"/>
</mask>
<path d="M3.27009 22.4646H18.645V13.5585H17.8297C16.8549 13.5585 16.0574 12.7609 16.0574 11.7861V10.1201H13.0001V11.4494C13.0001 12.6103 12.052 13.5585 10.8911 13.5585H8.45414C7.29327 13.5585 6.34507 12.6103 6.34507 11.4494V2.1091C6.34507 0.948208 7.29327 0 8.45414 0H10.8822C12.0431 0 12.9913 0.948208 12.9913 2.1091V3.43836H16.0485V1.77235C16.0485 0.797558 16.8461 0 17.8209 0H28.4814C28.7738 0 29.0574 0.0708941 29.3144 0.20382L38.2735 4.97145C38.5571 5.1221 38.7077 5.44998 38.6279 5.76014C38.5482 6.0703 38.2646 6.29185 37.9456 6.29185H30.2892C30.0853 6.29185 29.9258 6.46022 29.9258 6.65518V11.7773C29.9258 12.7521 29.1283 13.5496 28.1535 13.5496H25.2292V22.4646H30.2714C31.5564 19.6465 34.4098 17.7855 37.5202 17.7855C39.647 17.7855 41.6498 18.6186 43.1562 20.1251C43.9449 20.9137 44.5475 21.8531 44.9551 22.9165C45.0349 23.1292 45.0083 23.3773 44.8754 23.5634C44.7425 23.7495 44.5298 23.8647 44.2994 23.8647H37.9722C36.9354 23.8647 36.0935 24.7154 36.0935 25.7611C36.0935 26.798 36.9354 27.6487 37.9722 27.6487H44.2994C44.5298 27.6487 44.7513 27.7639 44.8754 27.95C45.0083 28.1449 45.0349 28.3842 44.9551 28.5969C44.5475 29.6603 43.9449 30.6085 43.1474 31.3972C41.6409 32.9037 39.6382 33.7367 37.5114 33.7367C35.3846 33.7367 33.3819 32.9037 31.8843 31.3972C31.2019 30.7148 30.6702 29.9262 30.2714 29.0488H25.2292V41.7123C25.2292 43.529 23.7493 45 21.9415 45C20.1249 45 18.6539 43.5201 18.6539 41.7123V29.0666H3.28782C1.47118 29.0666 0.000156403 27.5866 0.000156403 25.77C-0.0175667 23.9445 1.46232 22.4646 3.27009 22.4646ZM11.5911 9.41119V4.1473V2.1091C11.5911 1.71918 11.2721 1.40902 10.8911 1.40902H8.45414C8.06423 1.40902 7.75407 1.72804 7.75407 2.1091V11.4405C7.75407 11.8304 8.07309 12.1406 8.45414 12.1406H10.8822C11.2721 12.1406 11.5823 11.8216 11.5823 11.4405V9.41119H11.5911ZM16.0485 4.84738H12.9913V8.70224H16.0485V4.84738ZM37.5114 32.3366C39.266 32.3366 41.7738 31.4858 43.1828 29.0577H37.9633C36.1467 29.0577 34.6757 27.5778 34.6757 25.7611C34.6757 23.9445 36.1467 22.4646 37.9633 22.4646H43.1828C41.5523 20.0985 39.266 19.1946 37.5114 19.1946C34.8174 19.1946 30.8829 21.2771 30.9538 25.7611C31.0424 31.0073 35.7656 32.3366 37.5114 32.3366ZM25.2292 27.6575H29.7752C29.7575 27.5955 29.5536 26.0624 29.5536 25.77C29.5536 25.4776 29.7663 23.9356 29.784 23.8736H25.238V27.6575H25.2292ZM20.054 23.1735V28.3576V41.7211C20.054 42.758 20.8958 43.6087 21.9415 43.6087C22.9783 43.6087 23.829 42.7668 23.829 41.7211V28.3576V23.1646V13.5585H20.0629V23.1735H20.054ZM28.1535 12.1495C28.3573 12.1495 28.5168 11.9811 28.5168 11.7861V6.66404C28.5168 5.68925 29.3144 4.89169 30.2892 4.89169H35.1187L28.6586 1.45333C28.6055 1.42674 28.5434 1.40902 28.4903 1.40902H17.8297C17.6259 1.40902 17.4664 1.57739 17.4664 1.77235V4.1473V9.41119V11.7861C17.4664 11.99 17.6259 12.1495 17.8297 12.1495H28.1535ZM3.27009 27.6575H18.645V23.8736H3.27895C2.24215 23.8736 1.39143 24.7243 1.39143 25.77C1.39143 26.8068 2.23328 27.6575 3.27009 27.6575Z" fill="#E12D2F" stroke="#E12D2F" stroke-width="0.2" mask="url(#path-1-inside-1_54:38)"/>
</svg>
